# xmcd CD database file
#
# Track frame offsets:
#	150
#	30644
#	62352
#	75879
#	104355
#	138626
#	166977
#	187075
#	220713
#	244440
#	266362
#
# Disc length: 3853 seconds
#
# Revision: 0
# Processed by: cddbd v1.4PL0 Copyright (c) Steve Scherf et al.
# Submitted via: CDex 1.51
#
DISCID=910f0b0b
DTITLE=Cori-Thompson Quartet - Corbi-Thompson Quartet
DYEAR=1998
DGENRE=Jazz
TTITLE0=One for Lou
TTITLE1=Bossa at Borders
TTITLE2=I Thought About You
TTITLE3=The Boss Lady
TTITLE4=But Beautiful
TTITLE5=Ther Will Never Be Another You
TTITLE6=It Could Happen to You
TTITLE7=Autumn Leaves
TTITLE8=Only Trust Your Heart
TTITLE9=I've Never Been In Love Before
TTITLE10=There Is No Greater Love
EXTD=YEAR: 1998
EXTT0=
EXTT1=
EXTT2=
EXTT3=
EXTT4=
EXTT5=
EXTT6=
EXTT7=
EXTT8=
EXTT9=
EXTT10=
PLAYORDER=
